<mxfile host="app.diagrams.net" modified="2022-10-20T12:47:50.699Z" agent="5.0 (Windows NT 10.0; Win64; x64) AppleWebKit/537.36 (KHTML, like Gecko) Chrome/106.0.0.0 Safari/537.36 Edg/106.0.1370.47" etag="9Wwj0x-Y8DHZCygRIsAP" version="20.4.2" type="github">
  <diagram name="Page-1" id="e7e014a7-5840-1c2e-5031-d8a46d1fe8dd">
    <mxGraphModel dx="3592" dy="2012" grid="1" gridSize="10" guides="1" tooltips="1" connect="1" arrows="1" fold="1" page="1" pageScale="1" pageWidth="2339" pageHeight="3300" background="none" math="0" shadow="0">
      <root>
        <mxCell id="0" />
        <mxCell id="1" parent="0" />
        <mxCell id="cWWCTGIT67eP3YgJkroJ-1" value="" style="group" parent="1" vertex="1" connectable="0">
          <mxGeometry x="30" y="20" width="2290.0060000000003" height="3250.028" as="geometry" />
        </mxCell>
        <mxCell id="cWWCTGIT67eP3YgJkroJ-2" value="" style="rounded=0;whiteSpace=wrap;html=1;fillColor=none;" parent="cWWCTGIT67eP3YgJkroJ-1" vertex="1">
          <mxGeometry width="2290" height="3250" as="geometry" />
        </mxCell>
        <mxCell id="cWWCTGIT67eP3YgJkroJ-3" value="&lt;font style=&quot;font-size: 20px;&quot;&gt;Система моделирования искусственной жизни&lt;/font&gt;" style="shape=umlFrame;whiteSpace=wrap;html=1;width=285;height=106;" parent="cWWCTGIT67eP3YgJkroJ-1" vertex="1">
          <mxGeometry x="66.93" y="70.87" width="2153.54" height="2499.99" as="geometry" />
        </mxCell>
        <mxCell id="cWWCTGIT67eP3YgJkroJ-4" value="" style="rounded=0;whiteSpace=wrap;html=1;fillColor=none;" parent="cWWCTGIT67eP3YgJkroJ-1" vertex="1">
          <mxGeometry x="1561.1100000000001" y="3072.86" width="728.35" height="177.165" as="geometry" />
        </mxCell>
        <mxCell id="cWWCTGIT67eP3YgJkroJ-5" value="" style="rounded=0;whiteSpace=wrap;html=1;fillColor=none;" parent="cWWCTGIT67eP3YgJkroJ-1" vertex="1">
          <mxGeometry x="1562.0099999999998" y="3111.16" width="27.558999999999997" height="19.685" as="geometry" />
        </mxCell>
        <mxCell id="cWWCTGIT67eP3YgJkroJ-6" value="" style="rounded=0;whiteSpace=wrap;html=1;fillColor=none;" parent="cWWCTGIT67eP3YgJkroJ-1" vertex="1">
          <mxGeometry x="1562.0000000000002" y="3131.6699999999996" width="27.558999999999997" height="19.685" as="geometry" />
        </mxCell>
        <mxCell id="cWWCTGIT67eP3YgJkroJ-7" value="" style="rounded=0;whiteSpace=wrap;html=1;fillColor=none;" parent="cWWCTGIT67eP3YgJkroJ-1" vertex="1">
          <mxGeometry x="1562.01" y="3091.47" width="27.558999999999997" height="19.685" as="geometry" />
        </mxCell>
        <mxCell id="cWWCTGIT67eP3YgJkroJ-8" value="" style="rounded=0;whiteSpace=wrap;html=1;fillColor=none;" parent="cWWCTGIT67eP3YgJkroJ-1" vertex="1">
          <mxGeometry x="1589.5699999999997" y="3111.16" width="39.37" height="19.685" as="geometry" />
        </mxCell>
        <mxCell id="cWWCTGIT67eP3YgJkroJ-9" value="" style="rounded=0;whiteSpace=wrap;html=1;fillColor=none;" parent="cWWCTGIT67eP3YgJkroJ-1" vertex="1">
          <mxGeometry x="1589.5600000000002" y="3131.6699999999996" width="39.37" height="19.685" as="geometry" />
        </mxCell>
        <mxCell id="cWWCTGIT67eP3YgJkroJ-10" value="" style="rounded=0;whiteSpace=wrap;html=1;fillColor=none;" parent="cWWCTGIT67eP3YgJkroJ-1" vertex="1">
          <mxGeometry x="1589.57" y="3091.47" width="39.37" height="19.685" as="geometry" />
        </mxCell>
        <mxCell id="cWWCTGIT67eP3YgJkroJ-11" value="" style="rounded=0;whiteSpace=wrap;html=1;fillColor=none;" parent="cWWCTGIT67eP3YgJkroJ-1" vertex="1">
          <mxGeometry x="1628.9399999999998" y="3111.16" width="90.551" height="19.685" as="geometry" />
        </mxCell>
        <mxCell id="cWWCTGIT67eP3YgJkroJ-12" value="" style="rounded=0;whiteSpace=wrap;html=1;fillColor=none;" parent="cWWCTGIT67eP3YgJkroJ-1" vertex="1">
          <mxGeometry x="1629.2800000000002" y="3110.9399999999996" width="90.551" height="19.685" as="geometry" />
        </mxCell>
        <mxCell id="cWWCTGIT67eP3YgJkroJ-13" value="" style="rounded=0;whiteSpace=wrap;html=1;fillColor=none;" parent="cWWCTGIT67eP3YgJkroJ-1" vertex="1">
          <mxGeometry x="1628.94" y="3091.47" width="90.551" height="19.685" as="geometry" />
        </mxCell>
        <mxCell id="cWWCTGIT67eP3YgJkroJ-14" value="" style="rounded=0;whiteSpace=wrap;html=1;fillColor=none;" parent="cWWCTGIT67eP3YgJkroJ-1" vertex="1">
          <mxGeometry x="1719.4899999999998" y="3111.16" width="59.055" height="19.685" as="geometry" />
        </mxCell>
        <mxCell id="cWWCTGIT67eP3YgJkroJ-15" value="" style="rounded=0;whiteSpace=wrap;html=1;fillColor=none;" parent="cWWCTGIT67eP3YgJkroJ-1" vertex="1">
          <mxGeometry x="1719.14" y="3131.67" width="59.055" height="19.685" as="geometry" />
        </mxCell>
        <mxCell id="cWWCTGIT67eP3YgJkroJ-16" value="" style="rounded=0;whiteSpace=wrap;html=1;fillColor=none;" parent="cWWCTGIT67eP3YgJkroJ-1" vertex="1">
          <mxGeometry x="1719.49" y="3091.47" width="59.055" height="19.685" as="geometry" />
        </mxCell>
        <mxCell id="cWWCTGIT67eP3YgJkroJ-17" value="" style="rounded=0;whiteSpace=wrap;html=1;fillColor=none;" parent="cWWCTGIT67eP3YgJkroJ-1" vertex="1">
          <mxGeometry x="1778.2099999999998" y="3112" width="39.37" height="19.685" as="geometry" />
        </mxCell>
        <mxCell id="cWWCTGIT67eP3YgJkroJ-18" value="" style="rounded=0;whiteSpace=wrap;html=1;fillColor=none;" parent="cWWCTGIT67eP3YgJkroJ-1" vertex="1">
          <mxGeometry x="1778.2" y="3131.67" width="39.37" height="19.685" as="geometry" />
        </mxCell>
        <mxCell id="cWWCTGIT67eP3YgJkroJ-19" value="" style="rounded=0;whiteSpace=wrap;html=1;fillColor=none;" parent="cWWCTGIT67eP3YgJkroJ-1" vertex="1">
          <mxGeometry x="1778.19" y="3091.47" width="39.37" height="19.685" as="geometry" />
        </mxCell>
        <mxCell id="cWWCTGIT67eP3YgJkroJ-20" value="" style="rounded=0;whiteSpace=wrap;html=1;fillColor=none;" parent="cWWCTGIT67eP3YgJkroJ-1" vertex="1">
          <mxGeometry x="1817.56" y="3072.86" width="472.43" height="59.055" as="geometry" />
        </mxCell>
        <mxCell id="cWWCTGIT67eP3YgJkroJ-21" value="Изм." style="text;html=1;strokeColor=none;fillColor=none;align=center;verticalAlign=middle;whiteSpace=wrap;rounded=0;fontFamily=Times New Roman;fontSize=10;" parent="cWWCTGIT67eP3YgJkroJ-1" vertex="1">
          <mxGeometry x="1561.11" y="3131.66" width="27.558999999999997" height="19.685" as="geometry" />
        </mxCell>
        <mxCell id="cWWCTGIT67eP3YgJkroJ-22" value="Лист" style="text;html=1;strokeColor=none;fillColor=none;align=center;verticalAlign=middle;whiteSpace=wrap;rounded=0;fontFamily=Times New Roman;fontSize=10;" parent="cWWCTGIT67eP3YgJkroJ-1" vertex="1">
          <mxGeometry x="1589.9099999999999" y="3130.85" width="39.37" height="19.685" as="geometry" />
        </mxCell>
        <mxCell id="cWWCTGIT67eP3YgJkroJ-23" value="№ докум." style="text;html=1;strokeColor=none;fillColor=none;align=center;verticalAlign=middle;whiteSpace=wrap;rounded=0;fontFamily=Times New Roman;fontSize=10;" parent="cWWCTGIT67eP3YgJkroJ-1" vertex="1">
          <mxGeometry x="1629.2799999999997" y="3131.66" width="90.551" height="19.68" as="geometry" />
        </mxCell>
        <mxCell id="cWWCTGIT67eP3YgJkroJ-24" value="Подп" style="text;html=1;strokeColor=none;fillColor=none;align=center;verticalAlign=middle;whiteSpace=wrap;rounded=0;fontFamily=Times New Roman;fontSize=10;" parent="cWWCTGIT67eP3YgJkroJ-1" vertex="1">
          <mxGeometry x="1718.5900000000001" y="3131.93" width="59.055" height="19.68" as="geometry" />
        </mxCell>
        <mxCell id="cWWCTGIT67eP3YgJkroJ-25" value="Дата" style="text;html=1;strokeColor=none;fillColor=none;align=center;verticalAlign=middle;whiteSpace=wrap;rounded=0;fontFamily=Times New Roman;fontSize=10;" parent="cWWCTGIT67eP3YgJkroJ-1" vertex="1">
          <mxGeometry x="1778.1899999999998" y="3131.93" width="39.37" height="19.685" as="geometry" />
        </mxCell>
        <mxCell id="cWWCTGIT67eP3YgJkroJ-26" value="" style="rounded=0;whiteSpace=wrap;html=1;fillColor=none;" parent="cWWCTGIT67eP3YgJkroJ-1" vertex="1">
          <mxGeometry x="1562" y="3151.6" width="66.929" height="19.68" as="geometry" />
        </mxCell>
        <mxCell id="cWWCTGIT67eP3YgJkroJ-27" value="" style="rounded=0;whiteSpace=wrap;html=1;fillColor=none;" parent="cWWCTGIT67eP3YgJkroJ-1" vertex="1">
          <mxGeometry x="1562" y="3171.28" width="66.929" height="19.68" as="geometry" />
        </mxCell>
        <mxCell id="cWWCTGIT67eP3YgJkroJ-28" value="" style="rounded=0;whiteSpace=wrap;html=1;fillColor=none;" parent="cWWCTGIT67eP3YgJkroJ-1" vertex="1">
          <mxGeometry x="1562" y="3190.96" width="66.929" height="19.68" as="geometry" />
        </mxCell>
        <mxCell id="cWWCTGIT67eP3YgJkroJ-29" value="" style="rounded=0;whiteSpace=wrap;html=1;fillColor=none;" parent="cWWCTGIT67eP3YgJkroJ-1" vertex="1">
          <mxGeometry x="1562" y="3210.64" width="66.929" height="19.68" as="geometry" />
        </mxCell>
        <mxCell id="cWWCTGIT67eP3YgJkroJ-30" value="" style="rounded=0;whiteSpace=wrap;html=1;fillColor=none;" parent="cWWCTGIT67eP3YgJkroJ-1" vertex="1">
          <mxGeometry x="1562" y="3230.32" width="66.929" height="19.68" as="geometry" />
        </mxCell>
        <mxCell id="cWWCTGIT67eP3YgJkroJ-31" value="" style="rounded=0;whiteSpace=wrap;html=1;fillColor=none;" parent="cWWCTGIT67eP3YgJkroJ-1" vertex="1">
          <mxGeometry x="1628.6" y="3131.6699999999996" width="90.551" height="19.68" as="geometry" />
        </mxCell>
        <mxCell id="cWWCTGIT67eP3YgJkroJ-32" value="" style="rounded=0;whiteSpace=wrap;html=1;fillColor=none;" parent="cWWCTGIT67eP3YgJkroJ-1" vertex="1">
          <mxGeometry x="1628.59" y="3190.96" width="90.551" height="19.68" as="geometry" />
        </mxCell>
        <mxCell id="cWWCTGIT67eP3YgJkroJ-33" value="" style="rounded=0;whiteSpace=wrap;html=1;fillColor=none;" parent="cWWCTGIT67eP3YgJkroJ-1" vertex="1">
          <mxGeometry x="1628.59" y="3210.64" width="90.551" height="19.68" as="geometry" />
        </mxCell>
        <mxCell id="cWWCTGIT67eP3YgJkroJ-34" value="" style="rounded=0;whiteSpace=wrap;html=1;fillColor=none;" parent="cWWCTGIT67eP3YgJkroJ-1" vertex="1">
          <mxGeometry x="1628.59" y="3230.32" width="90.551" height="19.68" as="geometry" />
        </mxCell>
        <mxCell id="cWWCTGIT67eP3YgJkroJ-35" value="" style="rounded=0;whiteSpace=wrap;html=1;fillColor=none;" parent="cWWCTGIT67eP3YgJkroJ-1" vertex="1">
          <mxGeometry x="1719.1499999999999" y="3151.61" width="59.055" height="19.68" as="geometry" />
        </mxCell>
        <mxCell id="cWWCTGIT67eP3YgJkroJ-36" value="" style="rounded=0;whiteSpace=wrap;html=1;fillColor=none;" parent="cWWCTGIT67eP3YgJkroJ-1" vertex="1">
          <mxGeometry x="1719.1399999999999" y="3171.2799999999997" width="59.055" height="19.68" as="geometry" />
        </mxCell>
        <mxCell id="cWWCTGIT67eP3YgJkroJ-37" value="" style="rounded=0;whiteSpace=wrap;html=1;fillColor=none;" parent="cWWCTGIT67eP3YgJkroJ-1" vertex="1">
          <mxGeometry x="1719.1399999999999" y="3190.96" width="59.055" height="19.68" as="geometry" />
        </mxCell>
        <mxCell id="cWWCTGIT67eP3YgJkroJ-38" value="" style="rounded=0;whiteSpace=wrap;html=1;fillColor=none;" parent="cWWCTGIT67eP3YgJkroJ-1" vertex="1">
          <mxGeometry x="1719.1399999999999" y="3210.64" width="59.055" height="19.68" as="geometry" />
        </mxCell>
        <mxCell id="cWWCTGIT67eP3YgJkroJ-39" value="" style="rounded=0;whiteSpace=wrap;html=1;fillColor=none;" parent="cWWCTGIT67eP3YgJkroJ-1" vertex="1">
          <mxGeometry x="1719.1399999999999" y="3230.32" width="59.055" height="19.68" as="geometry" />
        </mxCell>
        <mxCell id="cWWCTGIT67eP3YgJkroJ-40" value="" style="rounded=0;whiteSpace=wrap;html=1;fillColor=none;" parent="cWWCTGIT67eP3YgJkroJ-1" vertex="1">
          <mxGeometry x="1778.1899999999998" y="3151.35" width="39.37" height="19.68" as="geometry" />
        </mxCell>
        <mxCell id="cWWCTGIT67eP3YgJkroJ-41" value="" style="rounded=0;whiteSpace=wrap;html=1;fillColor=none;" parent="cWWCTGIT67eP3YgJkroJ-1" vertex="1">
          <mxGeometry x="1778.2" y="3171.2799999999997" width="39.37" height="19.68" as="geometry" />
        </mxCell>
        <mxCell id="cWWCTGIT67eP3YgJkroJ-42" value="" style="rounded=0;whiteSpace=wrap;html=1;fillColor=none;" parent="cWWCTGIT67eP3YgJkroJ-1" vertex="1">
          <mxGeometry x="1778.2" y="3190.96" width="39.37" height="19.68" as="geometry" />
        </mxCell>
        <mxCell id="cWWCTGIT67eP3YgJkroJ-43" value="" style="rounded=0;whiteSpace=wrap;html=1;fillColor=none;" parent="cWWCTGIT67eP3YgJkroJ-1" vertex="1">
          <mxGeometry x="1778.2" y="3210.64" width="39.37" height="19.68" as="geometry" />
        </mxCell>
        <mxCell id="cWWCTGIT67eP3YgJkroJ-44" value="" style="rounded=0;whiteSpace=wrap;html=1;fillColor=none;" parent="cWWCTGIT67eP3YgJkroJ-1" vertex="1">
          <mxGeometry x="1778.2" y="3230.32" width="39.37" height="19.68" as="geometry" />
        </mxCell>
        <mxCell id="cWWCTGIT67eP3YgJkroJ-45" value="" style="rounded=0;whiteSpace=wrap;html=1;fontFamily=Times New Roman;fontSize=10;fillColor=none;" parent="cWWCTGIT67eP3YgJkroJ-1" vertex="1">
          <mxGeometry x="2218.59" y="3131.68" width="70.866" height="19.685" as="geometry" />
        </mxCell>
        <mxCell id="cWWCTGIT67eP3YgJkroJ-46" value="" style="rounded=0;whiteSpace=wrap;html=1;fontFamily=Times New Roman;fontSize=10;fillColor=none;" parent="cWWCTGIT67eP3YgJkroJ-1" vertex="1">
          <mxGeometry x="2219.1400000000003" y="3150.53" width="70.866" height="39.37" as="geometry" />
        </mxCell>
        <mxCell id="cWWCTGIT67eP3YgJkroJ-47" value="" style="rounded=0;whiteSpace=wrap;html=1;fontFamily=Times New Roman;fontSize=10;fillColor=none;" parent="cWWCTGIT67eP3YgJkroJ-1" vertex="1">
          <mxGeometry x="2152.23" y="3131.68" width="66.929" height="19.685" as="geometry" />
        </mxCell>
        <mxCell id="cWWCTGIT67eP3YgJkroJ-48" value="" style="rounded=0;whiteSpace=wrap;html=1;fontFamily=Times New Roman;fontSize=10;fillColor=none;" parent="cWWCTGIT67eP3YgJkroJ-1" vertex="1">
          <mxGeometry x="2152.21" y="3150.53" width="66.929" height="39.37" as="geometry" />
        </mxCell>
        <mxCell id="cWWCTGIT67eP3YgJkroJ-49" value="" style="rounded=0;whiteSpace=wrap;html=1;fontFamily=Times New Roman;fontSize=10;fillColor=none;" parent="cWWCTGIT67eP3YgJkroJ-1" vertex="1">
          <mxGeometry x="2093.1800000000003" y="3131.92" width="59.055" height="19.685" as="geometry" />
        </mxCell>
        <mxCell id="cWWCTGIT67eP3YgJkroJ-50" value="" style="rounded=0;whiteSpace=wrap;html=1;fontFamily=Times New Roman;fontSize=10;fillColor=none;" parent="cWWCTGIT67eP3YgJkroJ-1" vertex="1">
          <mxGeometry x="2093.1600000000003" y="3150.5299999999997" width="59.05" height="39.37" as="geometry" />
        </mxCell>
        <mxCell id="cWWCTGIT67eP3YgJkroJ-51" value="" style="rounded=0;whiteSpace=wrap;html=1;fontFamily=Times New Roman;fontSize=10;fillColor=none;" parent="cWWCTGIT67eP3YgJkroJ-1" vertex="1">
          <mxGeometry x="2093.14" y="3190.9700000000003" width="196.85" height="59.055" as="geometry" />
        </mxCell>
        <mxCell id="cWWCTGIT67eP3YgJkroJ-52" value="Разраб" style="text;html=1;strokeColor=none;fillColor=none;align=center;verticalAlign=middle;whiteSpace=wrap;rounded=0;fontFamily=Times New Roman;fontSize=10;" parent="cWWCTGIT67eP3YgJkroJ-1" vertex="1">
          <mxGeometry x="1562.35" y="3149.47" width="66.929" height="19.68" as="geometry" />
        </mxCell>
        <mxCell id="cWWCTGIT67eP3YgJkroJ-53" value="Пров" style="text;html=1;strokeColor=none;fillColor=none;align=center;verticalAlign=middle;whiteSpace=wrap;rounded=0;fontFamily=Times New Roman;fontSize=10;" parent="cWWCTGIT67eP3YgJkroJ-1" vertex="1">
          <mxGeometry x="1561.1069999999997" y="3170.217" width="66.929" height="19.68" as="geometry" />
        </mxCell>
        <mxCell id="cWWCTGIT67eP3YgJkroJ-54" value="Н. Контр." style="text;html=1;strokeColor=none;fillColor=none;align=center;verticalAlign=middle;whiteSpace=wrap;rounded=0;fontFamily=Times New Roman;fontSize=10;" parent="cWWCTGIT67eP3YgJkroJ-1" vertex="1">
          <mxGeometry x="1562.001" y="3210.641" width="66.929" height="19.68" as="geometry" />
        </mxCell>
        <mxCell id="cWWCTGIT67eP3YgJkroJ-55" value="Утв." style="text;html=1;strokeColor=none;fillColor=none;align=center;verticalAlign=middle;whiteSpace=wrap;rounded=0;fontFamily=Times New Roman;fontSize=10;" parent="cWWCTGIT67eP3YgJkroJ-1" vertex="1">
          <mxGeometry x="1562.008" y="3230.348" width="66.929" height="19.68" as="geometry" />
        </mxCell>
        <mxCell id="cWWCTGIT67eP3YgJkroJ-56" value="Лит." style="text;html=1;strokeColor=none;fillColor=none;align=center;verticalAlign=middle;whiteSpace=wrap;rounded=0;fontFamily=Times New Roman;fontSize=10;" parent="cWWCTGIT67eP3YgJkroJ-1" vertex="1">
          <mxGeometry x="2093.1800000000003" y="3131.93" width="59.055" height="19.68" as="geometry" />
        </mxCell>
        <mxCell id="cWWCTGIT67eP3YgJkroJ-57" value="Лист" style="text;html=1;strokeColor=none;fillColor=none;align=center;verticalAlign=middle;whiteSpace=wrap;rounded=0;fontFamily=Times New Roman;fontSize=10;" parent="cWWCTGIT67eP3YgJkroJ-1" vertex="1">
          <mxGeometry x="2152.2320000000004" y="3131.682" width="66.929" height="19.68" as="geometry" />
        </mxCell>
        <mxCell id="cWWCTGIT67eP3YgJkroJ-58" value="Листов" style="text;html=1;strokeColor=none;fillColor=none;align=center;verticalAlign=middle;whiteSpace=wrap;rounded=0;fontFamily=Times New Roman;fontSize=10;" parent="cWWCTGIT67eP3YgJkroJ-1" vertex="1">
          <mxGeometry x="2219.16" y="3131.68" width="69.75" height="19.68" as="geometry" />
        </mxCell>
        <mxCell id="cWWCTGIT67eP3YgJkroJ-59" value="" style="rounded=0;whiteSpace=wrap;html=1;fillColor=none;" parent="cWWCTGIT67eP3YgJkroJ-1" vertex="1">
          <mxGeometry x="1628.0400000000002" y="3151.6099999999997" width="90.551" height="19.685" as="geometry" />
        </mxCell>
        <mxCell id="cWWCTGIT67eP3YgJkroJ-60" value="Вершинин В. В." style="text;html=1;strokeColor=none;fillColor=none;align=center;verticalAlign=middle;whiteSpace=wrap;rounded=0;fontFamily=Times New Roman;fontSize=10;" parent="cWWCTGIT67eP3YgJkroJ-1" vertex="1">
          <mxGeometry x="1629.28" y="3171.03" width="88.74" height="19.68" as="geometry" />
        </mxCell>
        <mxCell id="cWWCTGIT67eP3YgJkroJ-61" value="Фамилия И. О." style="text;html=1;strokeColor=none;fillColor=none;align=center;verticalAlign=middle;whiteSpace=wrap;rounded=0;fontFamily=Times New Roman;fontSize=10;" parent="cWWCTGIT67eP3YgJkroJ-1" vertex="1">
          <mxGeometry x="1628.597" y="3151.337" width="88.74" height="19.68" as="geometry" />
        </mxCell>
        <mxCell id="cWWCTGIT67eP3YgJkroJ-62" value="&lt;span style=&quot;font-size: 14.0pt ; line-height: 150% ; font-family: &amp;quot;times new roman&amp;quot; , serif&quot;&gt;ВлГУ.09.03.02.&lt;/span&gt;" style="text;html=1;strokeColor=none;fillColor=none;align=center;verticalAlign=middle;whiteSpace=wrap;rounded=0;fontFamily=Times New Roman;fontSize=10;" parent="cWWCTGIT67eP3YgJkroJ-1" vertex="1">
          <mxGeometry x="1817.56" y="3072.86" width="471.33" height="56.74" as="geometry" />
        </mxCell>
        <mxCell id="cWWCTGIT67eP3YgJkroJ-63" value="Номер группы" style="text;html=1;strokeColor=none;fillColor=none;align=center;verticalAlign=middle;whiteSpace=wrap;rounded=0;fontFamily=Times New Roman;fontSize=10;" parent="cWWCTGIT67eP3YgJkroJ-1" vertex="1">
          <mxGeometry x="2093.18" y="3189.9" width="195.71" height="57.81" as="geometry" />
        </mxCell>
        <mxCell id="cWWCTGIT67eP3YgJkroJ-64" value="&lt;font style=&quot;font-size: 17px&quot;&gt;Диаграмма прецедентов&lt;br&gt;&lt;/font&gt;" style="text;html=1;strokeColor=none;fillColor=none;align=center;verticalAlign=middle;whiteSpace=wrap;rounded=0;fontFamily=Times New Roman;fontSize=10;" parent="cWWCTGIT67eP3YgJkroJ-1" vertex="1">
          <mxGeometry x="1817.58" y="3131.93" width="274.46" height="116.09" as="geometry" />
        </mxCell>
        <mxCell id="cWWCTGIT67eP3YgJkroJ-65" value="&lt;font style=&quot;font-size: 24px;&quot;&gt;Незарегистрированный пользователь&lt;/font&gt;" style="shape=umlActor;verticalLabelPosition=bottom;verticalAlign=top;html=1;outlineConnect=0;" parent="cWWCTGIT67eP3YgJkroJ-1" vertex="1">
          <mxGeometry x="437.01" y="2706.69" width="139.29" height="273.63" as="geometry" />
        </mxCell>
        <mxCell id="cWWCTGIT67eP3YgJkroJ-66" value="&lt;font style=&quot;font-size: 24px;&quot;&gt;Пользователь&lt;/font&gt;" style="shape=umlActor;verticalLabelPosition=bottom;verticalAlign=top;html=1;outlineConnect=0;" parent="cWWCTGIT67eP3YgJkroJ-1" vertex="1">
          <mxGeometry x="1075.4099999999999" y="2704.7200000000003" width="139.18" height="275.59" as="geometry" />
        </mxCell>
        <mxCell id="cWWCTGIT67eP3YgJkroJ-67" value="&lt;font style=&quot;font-size: 24px;&quot;&gt;Администратор&lt;/font&gt;" style="shape=umlActor;verticalLabelPosition=bottom;verticalAlign=top;html=1;outlineConnect=0;" parent="cWWCTGIT67eP3YgJkroJ-1" vertex="1">
          <mxGeometry x="1714.09" y="2706.69" width="136.3" height="271.65" as="geometry" />
        </mxCell>
        <mxCell id="cWWCTGIT67eP3YgJkroJ-68" value="&lt;font style=&quot;font-size: 24px;&quot;&gt;Просмотреть список сохраненных ботов&lt;/font&gt;" style="ellipse;whiteSpace=wrap;html=1;" parent="cWWCTGIT67eP3YgJkroJ-1" vertex="1">
          <mxGeometry x="602.36" y="1464.25" width="358.27" height="169.61" as="geometry" />
        </mxCell>
        <mxCell id="cWWCTGIT67eP3YgJkroJ-69" value="" style="endArrow=none;html=1;rounded=0;exitX=0.5;exitY=1;exitDx=0;exitDy=0;entryX=0;entryY=0.3333333333333333;entryDx=0;entryDy=0;entryPerimeter=0;" parent="cWWCTGIT67eP3YgJkroJ-1" source="cWWCTGIT67eP3YgJkroJ-68" target="cWWCTGIT67eP3YgJkroJ-66" edge="1">
          <mxGeometry width="50" height="50" relative="1" as="geometry">
            <mxPoint x="952.61" y="-11.889999999999986" as="sourcePoint" />
            <mxPoint x="1116.6100000000001" y="1178.1100000000001" as="targetPoint" />
          </mxGeometry>
        </mxCell>
        <mxCell id="cWWCTGIT67eP3YgJkroJ-70" value="&lt;font style=&quot;font-size: 24px;&quot;&gt;Extends&lt;/font&gt;" style="endArrow=block;endSize=16;endFill=0;html=1;rounded=0;exitX=0.5;exitY=0.5;exitDx=0;exitDy=0;exitPerimeter=0;entryX=0.5;entryY=0.5;entryDx=0;entryDy=0;entryPerimeter=0;" parent="cWWCTGIT67eP3YgJkroJ-1" source="cWWCTGIT67eP3YgJkroJ-66" target="cWWCTGIT67eP3YgJkroJ-65" edge="1">
          <mxGeometry width="160" relative="1" as="geometry">
            <mxPoint x="608.61" y="64.09000000000002" as="sourcePoint" />
            <mxPoint x="915.61" y="-115.90999999999998" as="targetPoint" />
          </mxGeometry>
        </mxCell>
        <mxCell id="cWWCTGIT67eP3YgJkroJ-71" value="&lt;font style=&quot;font-size: 24px;&quot;&gt;Extends&lt;/font&gt;" style="endArrow=block;endSize=16;endFill=0;html=1;rounded=0;entryX=0.5;entryY=0.5;entryDx=0;entryDy=0;entryPerimeter=0;exitX=0.5;exitY=0.5;exitDx=0;exitDy=0;exitPerimeter=0;" parent="cWWCTGIT67eP3YgJkroJ-1" source="cWWCTGIT67eP3YgJkroJ-67" target="cWWCTGIT67eP3YgJkroJ-66" edge="1">
          <mxGeometry width="160" relative="1" as="geometry">
            <mxPoint x="855.61" y="234.09000000000003" as="sourcePoint" />
            <mxPoint x="1155.6100000000001" y="344.09000000000003" as="targetPoint" />
          </mxGeometry>
        </mxCell>
        <mxCell id="cWWCTGIT67eP3YgJkroJ-72" value="&lt;font style=&quot;font-size: 24px;&quot;&gt;Создать ботов&lt;/font&gt;" style="ellipse;whiteSpace=wrap;html=1;" parent="cWWCTGIT67eP3YgJkroJ-1" vertex="1">
          <mxGeometry x="1340.0800000000002" y="944.5600000000001" width="295.27" height="149.61" as="geometry" />
        </mxCell>
        <mxCell id="cWWCTGIT67eP3YgJkroJ-73" value="&lt;font style=&quot;font-size: 24px;&quot;&gt;Обучить ботов&lt;/font&gt;" style="ellipse;whiteSpace=wrap;html=1;" parent="cWWCTGIT67eP3YgJkroJ-1" vertex="1">
          <mxGeometry x="1725.8999999999999" y="259.53" width="297.72" height="161.1" as="geometry" />
        </mxCell>
        <mxCell id="cWWCTGIT67eP3YgJkroJ-74" value="&lt;font style=&quot;font-size: 24px;&quot;&gt;Войти в систему&lt;/font&gt;" style="ellipse;whiteSpace=wrap;html=1;" parent="cWWCTGIT67eP3YgJkroJ-1" vertex="1">
          <mxGeometry x="519.68" y="2208.34" width="291.34" height="145.99" as="geometry" />
        </mxCell>
        <mxCell id="cWWCTGIT67eP3YgJkroJ-75" value="&lt;font style=&quot;font-size: 24px;&quot;&gt;Выйти из системы&lt;/font&gt;" style="ellipse;whiteSpace=wrap;html=1;" parent="cWWCTGIT67eP3YgJkroJ-1" vertex="1">
          <mxGeometry x="76.3" y="1892.7" width="262.28" height="149.92" as="geometry" />
        </mxCell>
        <mxCell id="cWWCTGIT67eP3YgJkroJ-76" value="" style="endArrow=none;html=1;rounded=0;exitX=1;exitY=0.3333333333333333;exitDx=0;exitDy=0;exitPerimeter=0;entryX=0.5;entryY=1;entryDx=0;entryDy=0;" parent="cWWCTGIT67eP3YgJkroJ-1" source="cWWCTGIT67eP3YgJkroJ-65" target="cWWCTGIT67eP3YgJkroJ-74" edge="1">
          <mxGeometry width="50" height="50" relative="1" as="geometry">
            <mxPoint x="859.61" y="-261.89" as="sourcePoint" />
            <mxPoint x="1089.6100000000006" y="-312.72333333333324" as="targetPoint" />
          </mxGeometry>
        </mxCell>
        <mxCell id="cWWCTGIT67eP3YgJkroJ-77" value="" style="endArrow=none;html=1;rounded=0;entryX=0.5;entryY=1;entryDx=0;entryDy=0;exitX=0;exitY=0.3333333333333333;exitDx=0;exitDy=0;exitPerimeter=0;" parent="cWWCTGIT67eP3YgJkroJ-1" source="cWWCTGIT67eP3YgJkroJ-65" target="cWWCTGIT67eP3YgJkroJ-75" edge="1">
          <mxGeometry width="50" height="50" relative="1" as="geometry">
            <mxPoint x="859.61" y="-251.89" as="sourcePoint" />
            <mxPoint x="1039.6100000000006" y="-312.72333333333324" as="targetPoint" />
          </mxGeometry>
        </mxCell>
        <mxCell id="cWWCTGIT67eP3YgJkroJ-78" value="&lt;font style=&quot;font-size: 24px;&quot;&gt;Зарегистрироваться в системе&lt;/font&gt;" style="ellipse;whiteSpace=wrap;html=1;" parent="cWWCTGIT67eP3YgJkroJ-1" vertex="1">
          <mxGeometry x="194.40999999999997" y="550.8700000000001" width="313.46" height="157.8" as="geometry" />
        </mxCell>
        <mxCell id="cWWCTGIT67eP3YgJkroJ-79" value="&lt;font style=&quot;font-size: 24px;&quot;&gt;Extends&lt;/font&gt;" style="endArrow=block;endSize=16;endFill=0;html=1;rounded=0;entryX=0.5;entryY=0;entryDx=0;entryDy=0;exitX=0.5;exitY=1;exitDx=0;exitDy=0;" parent="cWWCTGIT67eP3YgJkroJ-1" source="cWWCTGIT67eP3YgJkroJ-78" target="cWWCTGIT67eP3YgJkroJ-74" edge="1">
          <mxGeometry width="160" relative="1" as="geometry">
            <mxPoint x="1289.6100000000001" y="-241.89" as="sourcePoint" />
            <mxPoint x="1154.6100000000001" y="-252.51" as="targetPoint" />
          </mxGeometry>
        </mxCell>
        <mxCell id="cWWCTGIT67eP3YgJkroJ-80" value="&lt;font style=&quot;font-size: 24px;&quot;&gt;Include&lt;/font&gt;" style="endArrow=open;endSize=12;dashed=1;html=1;rounded=0;exitX=0.5;exitY=0;exitDx=0;exitDy=0;entryX=0.5;entryY=1;entryDx=0;entryDy=0;" parent="cWWCTGIT67eP3YgJkroJ-1" source="cWWCTGIT67eP3YgJkroJ-72" target="cWWCTGIT67eP3YgJkroJ-73" edge="1">
          <mxGeometry width="160" relative="1" as="geometry">
            <mxPoint x="1236.65" y="941.7200000000001" as="sourcePoint" />
            <mxPoint x="1127.6119407771262" y="1020.5067965644034" as="targetPoint" />
          </mxGeometry>
        </mxCell>
        <mxCell id="cWWCTGIT67eP3YgJkroJ-81" value="&lt;font style=&quot;font-size: 24px;&quot;&gt;Сохранить карту&lt;/font&gt;" style="ellipse;whiteSpace=wrap;html=1;" parent="cWWCTGIT67eP3YgJkroJ-1" vertex="1">
          <mxGeometry x="1410.94" y="2204.41" width="273.54" height="137.8" as="geometry" />
        </mxCell>
        <mxCell id="cWWCTGIT67eP3YgJkroJ-82" value="&lt;font style=&quot;font-size: 24px;&quot;&gt;Просмотреть список пользователей&lt;/font&gt;" style="ellipse;whiteSpace=wrap;html=1;" parent="cWWCTGIT67eP3YgJkroJ-1" vertex="1">
          <mxGeometry x="1773.71" y="2263.46" width="303.15" height="134.18" as="geometry" />
        </mxCell>
        <mxCell id="cWWCTGIT67eP3YgJkroJ-83" value="" style="endArrow=none;html=1;rounded=0;entryX=0.5;entryY=1;entryDx=0;entryDy=0;exitX=0;exitY=0.3333333333333333;exitDx=0;exitDy=0;exitPerimeter=0;" parent="cWWCTGIT67eP3YgJkroJ-1" source="cWWCTGIT67eP3YgJkroJ-65" target="cWWCTGIT67eP3YgJkroJ-84" edge="1">
          <mxGeometry width="50" height="50" relative="1" as="geometry">
            <mxPoint x="736.61" y="1178.1100000000001" as="sourcePoint" />
            <mxPoint x="736.61" y="558.1133333333335" as="targetPoint" />
          </mxGeometry>
        </mxCell>
        <mxCell id="cWWCTGIT67eP3YgJkroJ-84" value="&lt;font style=&quot;font-size: 24px;&quot;&gt;Просмотреть базовый список ботов&lt;/font&gt;" style="ellipse;whiteSpace=wrap;html=1;" parent="cWWCTGIT67eP3YgJkroJ-1" vertex="1">
          <mxGeometry x="131.42" y="1196.53" width="317.4" height="145.98" as="geometry" />
        </mxCell>
        <mxCell id="cWWCTGIT67eP3YgJkroJ-85" value="&lt;font style=&quot;font-size: 24px;&quot;&gt;Формировать популяции ботов&lt;/font&gt;" style="ellipse;whiteSpace=wrap;html=1;" parent="cWWCTGIT67eP3YgJkroJ-1" vertex="1">
          <mxGeometry x="1140" y="1389.45" width="312.52" height="148.11" as="geometry" />
        </mxCell>
        <mxCell id="cWWCTGIT67eP3YgJkroJ-86" value="" style="endArrow=none;html=1;rounded=0;exitX=1;exitY=0.3333333333333333;exitDx=0;exitDy=0;exitPerimeter=0;entryX=0.5;entryY=1;entryDx=0;entryDy=0;" parent="cWWCTGIT67eP3YgJkroJ-1" source="cWWCTGIT67eP3YgJkroJ-66" target="cWWCTGIT67eP3YgJkroJ-88" edge="1">
          <mxGeometry width="50" height="50" relative="1" as="geometry">
            <mxPoint x="1276.6100000000001" y="1258.1100000000001" as="sourcePoint" />
            <mxPoint x="1366.6100000000001" y="944.4433333333335" as="targetPoint" />
          </mxGeometry>
        </mxCell>
        <mxCell id="cWWCTGIT67eP3YgJkroJ-87" value="&lt;font style=&quot;font-size: 24px;&quot;&gt;Include&lt;/font&gt;" style="endArrow=open;endSize=12;dashed=1;html=1;rounded=0;exitX=0.5;exitY=0;exitDx=0;exitDy=0;entryX=0.5;entryY=1;entryDx=0;entryDy=0;" parent="cWWCTGIT67eP3YgJkroJ-1" source="cWWCTGIT67eP3YgJkroJ-85" target="cWWCTGIT67eP3YgJkroJ-72" edge="1">
          <mxGeometry width="160" relative="1" as="geometry">
            <mxPoint x="986.61" y="1278.1100000000001" as="sourcePoint" />
            <mxPoint x="1276.6100000000001" y="788.11" as="targetPoint" />
          </mxGeometry>
        </mxCell>
        <mxCell id="cWWCTGIT67eP3YgJkroJ-88" value="&lt;font style=&quot;font-size: 24px;&quot;&gt;Создать начальную популяцию ботов&lt;/font&gt;" style="ellipse;whiteSpace=wrap;html=1;" parent="cWWCTGIT67eP3YgJkroJ-1" vertex="1">
          <mxGeometry x="1127.48" y="1944.56" width="400.86" height="178.16" as="geometry" />
        </mxCell>
        <mxCell id="cWWCTGIT67eP3YgJkroJ-89" value="&lt;font style=&quot;font-size: 24px;&quot;&gt;Создать список ботов&lt;/font&gt;" style="ellipse;whiteSpace=wrap;html=1;" parent="cWWCTGIT67eP3YgJkroJ-1" vertex="1">
          <mxGeometry x="851.8900000000001" y="932.75" width="325.28" height="145.98" as="geometry" />
        </mxCell>
        <mxCell id="cWWCTGIT67eP3YgJkroJ-90" value="&lt;font style=&quot;font-size: 24px;&quot;&gt;Добавить ботов&lt;/font&gt;" style="ellipse;whiteSpace=wrap;html=1;" parent="cWWCTGIT67eP3YgJkroJ-1" vertex="1">
          <mxGeometry x="1099.9199999999998" y="255.58999999999997" width="341.02" height="157.48" as="geometry" />
        </mxCell>
        <mxCell id="cWWCTGIT67eP3YgJkroJ-91" value="&lt;font style=&quot;font-size: 24px;&quot;&gt;Удалить ботов&lt;/font&gt;" style="ellipse;whiteSpace=wrap;html=1;" parent="cWWCTGIT67eP3YgJkroJ-1" vertex="1">
          <mxGeometry x="572.36" y="247.39999999999998" width="321.34" height="165.67" as="geometry" />
        </mxCell>
        <mxCell id="cWWCTGIT67eP3YgJkroJ-92" value="&lt;font style=&quot;font-size: 22px;&quot;&gt;Include&lt;/font&gt;" style="endArrow=open;endSize=12;dashed=1;html=1;rounded=0;entryX=0;entryY=1;entryDx=0;entryDy=0;exitX=0.5;exitY=0;exitDx=0;exitDy=0;" parent="cWWCTGIT67eP3YgJkroJ-1" source="cWWCTGIT67eP3YgJkroJ-68" target="cWWCTGIT67eP3YgJkroJ-89" edge="1">
          <mxGeometry width="160" relative="1" as="geometry">
            <mxPoint x="1116.6100000000001" y="887.11" as="sourcePoint" />
            <mxPoint x="1104.1784924325561" y="1066.4045023458316" as="targetPoint" />
          </mxGeometry>
        </mxCell>
        <mxCell id="cWWCTGIT67eP3YgJkroJ-93" value="&lt;font style=&quot;font-size: 24px;&quot;&gt;Include&lt;/font&gt;" style="endArrow=open;endSize=12;dashed=1;html=1;rounded=0;exitX=0.5;exitY=1;exitDx=0;exitDy=0;entryX=1;entryY=0;entryDx=0;entryDy=0;" parent="cWWCTGIT67eP3YgJkroJ-1" source="cWWCTGIT67eP3YgJkroJ-90" target="cWWCTGIT67eP3YgJkroJ-89" edge="1">
          <mxGeometry width="160" relative="1" as="geometry">
            <mxPoint x="1056.6100000000001" y="568.11" as="sourcePoint" />
            <mxPoint x="1154.1784924325561" y="627.4045023458315" as="targetPoint" />
          </mxGeometry>
        </mxCell>
        <mxCell id="cWWCTGIT67eP3YgJkroJ-94" value="&lt;font style=&quot;font-size: 24px;&quot;&gt;Include&lt;/font&gt;" style="endArrow=open;endSize=12;dashed=1;html=1;rounded=0;exitX=0.5;exitY=1;exitDx=0;exitDy=0;entryX=0;entryY=0;entryDx=0;entryDy=0;shadow=1;" parent="cWWCTGIT67eP3YgJkroJ-1" source="cWWCTGIT67eP3YgJkroJ-91" target="cWWCTGIT67eP3YgJkroJ-89" edge="1">
          <mxGeometry width="160" relative="1" as="geometry">
            <mxPoint x="1016.6100000000001" y="738.11" as="sourcePoint" />
            <mxPoint x="1114.1784924325561" y="797.4045023458315" as="targetPoint" />
          </mxGeometry>
        </mxCell>
        <mxCell id="cWWCTGIT67eP3YgJkroJ-95" value="&lt;font style=&quot;font-size: 24px;&quot;&gt;Include&lt;/font&gt;" style="endArrow=open;endSize=12;dashed=1;html=1;rounded=0;exitX=0.5;exitY=0;exitDx=0;exitDy=0;entryX=0.5;entryY=1;entryDx=0;entryDy=0;" parent="cWWCTGIT67eP3YgJkroJ-1" source="cWWCTGIT67eP3YgJkroJ-88" target="cWWCTGIT67eP3YgJkroJ-85" edge="1">
          <mxGeometry width="160" relative="1" as="geometry">
            <mxPoint x="1406.6100000000001" y="1008.1100000000001" as="sourcePoint" />
            <mxPoint x="1504.1784924325561" y="1067.4045023458316" as="targetPoint" />
          </mxGeometry>
        </mxCell>
        <mxCell id="cWWCTGIT67eP3YgJkroJ-96" value="" style="endArrow=none;html=1;rounded=0;exitX=1;exitY=0.3333333333333333;exitDx=0;exitDy=0;entryX=0.5;entryY=1;entryDx=0;entryDy=0;exitPerimeter=0;" parent="cWWCTGIT67eP3YgJkroJ-1" source="cWWCTGIT67eP3YgJkroJ-67" target="cWWCTGIT67eP3YgJkroJ-82" edge="1">
          <mxGeometry width="50" height="50" relative="1" as="geometry">
            <mxPoint x="1776.6100000000001" y="1238.1100000000001" as="sourcePoint" />
            <mxPoint x="1986.604899303742" y="1325.2843724480917" as="targetPoint" />
          </mxGeometry>
        </mxCell>
        <mxCell id="cWWCTGIT67eP3YgJkroJ-97" value="&lt;font style=&quot;font-size: 24px;&quot;&gt;Назначить роли пользователям&lt;/font&gt;" style="ellipse;whiteSpace=wrap;html=1;" parent="cWWCTGIT67eP3YgJkroJ-1" vertex="1">
          <mxGeometry x="1541.99" y="1436.69" width="304.46" height="157.79" as="geometry" />
        </mxCell>
        <mxCell id="cWWCTGIT67eP3YgJkroJ-98" value="" style="endArrow=none;html=1;rounded=0;exitX=0.5;exitY=1;exitDx=0;exitDy=0;entryX=0;entryY=0.3333333333333333;entryDx=0;entryDy=0;entryPerimeter=0;" parent="cWWCTGIT67eP3YgJkroJ-1" source="cWWCTGIT67eP3YgJkroJ-81" target="cWWCTGIT67eP3YgJkroJ-67" edge="1">
          <mxGeometry width="50" height="50" relative="1" as="geometry">
            <mxPoint x="1666.6100000000001" y="1228.1100000000001" as="sourcePoint" />
            <mxPoint x="1978.1100000000001" y="1146.4433333333332" as="targetPoint" />
          </mxGeometry>
        </mxCell>
        <mxCell id="cWWCTGIT67eP3YgJkroJ-99" value="&lt;font style=&quot;font-size: 24px;&quot;&gt;Добавить пользователей&lt;/font&gt;" style="ellipse;whiteSpace=wrap;html=1;" parent="cWWCTGIT67eP3YgJkroJ-1" vertex="1">
          <mxGeometry x="1948.81" y="1267.4" width="253.23" height="130.24" as="geometry" />
        </mxCell>
        <mxCell id="cWWCTGIT67eP3YgJkroJ-100" value="&lt;font style=&quot;font-size: 24px;&quot;&gt;Удалить пользователей&lt;/font&gt;" style="ellipse;whiteSpace=wrap;html=1;" parent="cWWCTGIT67eP3YgJkroJ-1" vertex="1">
          <mxGeometry x="1751.97" y="744.09" width="320.39" height="157.48" as="geometry" />
        </mxCell>
        <mxCell id="cWWCTGIT67eP3YgJkroJ-101" value="&lt;font style=&quot;font-size: 24px;&quot;&gt;Include&lt;/font&gt;" style="endArrow=open;endSize=12;dashed=1;html=1;rounded=0;exitX=0.705;exitY=0.046;exitDx=0;exitDy=0;entryX=0.5;entryY=1;entryDx=0;entryDy=0;exitPerimeter=0;" parent="cWWCTGIT67eP3YgJkroJ-1" source="cWWCTGIT67eP3YgJkroJ-82" target="cWWCTGIT67eP3YgJkroJ-99" edge="1">
          <mxGeometry width="160" relative="1" as="geometry">
            <mxPoint x="1976.6100000000001" y="1168.1100000000001" as="sourcePoint" />
            <mxPoint x="2165.902690179235" y="1196.7799220836432" as="targetPoint" />
          </mxGeometry>
        </mxCell>
        <mxCell id="cWWCTGIT67eP3YgJkroJ-102" value="&lt;font style=&quot;font-size: 24px;&quot;&gt;Include&lt;/font&gt;" style="endArrow=open;endSize=12;dashed=1;html=1;rounded=0;exitX=0.5;exitY=0;exitDx=0;exitDy=0;entryX=0.5;entryY=1;entryDx=0;entryDy=0;" parent="cWWCTGIT67eP3YgJkroJ-1" source="cWWCTGIT67eP3YgJkroJ-82" target="cWWCTGIT67eP3YgJkroJ-100" edge="1">
          <mxGeometry width="160" relative="1" as="geometry">
            <mxPoint x="1976.6100000000001" y="1108.1100000000001" as="sourcePoint" />
            <mxPoint x="2165.902690179235" y="1136.7799220836432" as="targetPoint" />
          </mxGeometry>
        </mxCell>
        <mxCell id="cWWCTGIT67eP3YgJkroJ-103" value="&lt;font style=&quot;font-size: 24px;&quot;&gt;Include&lt;/font&gt;" style="endArrow=open;endSize=12;dashed=1;html=1;rounded=0;entryX=0.5;entryY=1;entryDx=0;entryDy=0;exitX=0.258;exitY=0.059;exitDx=0;exitDy=0;exitPerimeter=0;" parent="cWWCTGIT67eP3YgJkroJ-1" source="cWWCTGIT67eP3YgJkroJ-82" target="cWWCTGIT67eP3YgJkroJ-97" edge="1">
          <mxGeometry width="160" relative="1" as="geometry">
            <mxPoint x="1852" y="2267" as="sourcePoint" />
            <mxPoint x="1835.902690179235" y="1046.7799220836432" as="targetPoint" />
          </mxGeometry>
        </mxCell>
        <mxCell id="cWWCTGIT67eP3YgJkroJ-104" value="" style="endArrow=none;html=1;rounded=0;exitX=0.5;exitY=1;exitDx=0;exitDy=0;entryX=0;entryY=0.3333333333333333;entryDx=0;entryDy=0;entryPerimeter=0;" parent="cWWCTGIT67eP3YgJkroJ-1" source="cWWCTGIT67eP3YgJkroJ-89" target="cWWCTGIT67eP3YgJkroJ-66" edge="1">
          <mxGeometry width="50" height="50" relative="1" as="geometry">
            <mxPoint x="1046.6100000000001" y="1238.1100000000001" as="sourcePoint" />
            <mxPoint x="1086.6100000000001" y="1158.1100000000001" as="targetPoint" />
          </mxGeometry>
        </mxCell>
      </root>
    </mxGraphModel>
  </diagram>
</mxfile>
